<svg width="80" height="80" viewBox="0 0 80 80" fill="none" xmlns="http://www.w3.org/2000/svg">
<path d="M34 8C36.252 8 38.328 8.744 40 10C41.4857 8.88573 43.2523 8.20719 45.1019 8.04041C46.9516 7.87363 48.8111 8.2252 50.4721 9.05573C52.1332 9.88626 53.5302 11.1629 54.5065 12.7427C55.4829 14.3225 56 16.1429 56 18V24H60C61.0609 24 62.0783 24.4214 62.8284 25.1716C63.5786 25.9217 64 26.9391 64 28V43.516L60 47.516V28H48V36C46.6 36 45.252 36.24 44 36.68V28H20V60C20 62.1217 20.8429 64.1566 22.3431 65.6569C23.8434 67.1571 25.8783 68 28 68H40.34C39.8844 69.2944 39.8844 70.7056 40.34 72H28C24.8174 72 21.7652 70.7357 19.5147 68.4853C17.2643 66.2349 16 63.1826 16 60V28C16 26.9391 16.4214 25.9217 17.1716 25.1716C17.9217 24.4214 18.9391 24 20 24H24V18C24 15.3478 25.0536 12.8043 26.9289 10.9289C28.8043 9.05357 31.3478 8 34 8ZM34 12C32.4087 12 30.8826 12.6321 29.7574 13.7574C28.6321 14.8826 28 16.4087 28 18V24H40V18C40 16.4087 39.3679 14.8826 38.2426 13.7574C37.1174 12.6321 35.5913 12 34 12ZM46 12C44.768 12 43.62 12.372 42.668 13.008C43.516 14.48 44 16.184 44 18V24H52V18C52 16.4087 51.3679 14.8826 50.2426 13.7574C49.1174 12.6321 47.5913 12 46 12ZM48 56C50.1217 56 52.1566 55.1571 53.6569 53.6569C55.1571 52.1566 56 50.1217 56 48C56 45.8783 55.1571 43.8434 53.6569 42.3432C52.1566 40.8429 50.1217 40 48 40C45.8783 40 43.8434 40.8429 42.3431 42.3432C40.8429 43.8434 40 45.8783 40 48C40 50.1217 40.8429 52.1566 42.3431 53.6569C43.8434 55.1571 45.8783 56 48 56ZM48 44C49.0609 44 50.0783 44.4214 50.8284 45.1716C51.5786 45.9217 52 46.9391 52 48C52 49.0609 51.5786 50.0783 50.8284 50.8284C50.0783 51.5786 49.0609 52 48 52C46.9391 52 45.9217 51.5786 45.1716 50.8284C44.4214 50.0783 44 49.0609 44 48C44 46.9391 44.4214 45.9217 45.1716 45.1716C45.9217 44.4214 46.9391 44 48 44ZM68 76C70.1217 76 72.1566 75.1572 73.6569 73.6569C75.1571 72.1566 76 70.1217 76 68C76 65.8783 75.1571 63.8434 73.6569 62.3432C72.1566 60.8429 70.1217 60 68 60C65.8783 60 63.8434 60.8429 62.3431 62.3432C60.8429 63.8434 60 65.8783 60 68C60 70.1217 60.8429 72.1566 62.3431 73.6569C63.8434 75.1572 65.8783 76 68 76ZM68 64C69.0609 64 70.0783 64.4214 70.8284 65.1716C71.5786 65.9217 72 66.9391 72 68C72 69.0609 71.5786 70.0783 70.8284 70.8284C70.0783 71.5786 69.0609 72 68 72C66.9391 72 65.9217 71.5786 65.1716 70.8284C64.4214 70.0783 64 69.0609 64 68C64 66.9391 64.4214 65.9217 65.1716 65.1716C65.9217 64.4214 66.9391 64 68 64ZM71.416 47.416C71.7915 47.0405 72.0025 46.5311 72.0025 46C72.0025 45.4689 71.7915 44.9595 71.416 44.584C71.0405 44.2085 70.5311 43.9975 70 43.9975C69.4689 43.9975 68.9595 44.2085 68.584 44.584L44.584 68.584C44.2085 68.9595 43.9975 69.4689 43.9975 70C43.9975 70.5311 44.2085 71.0405 44.584 71.416C44.9595 71.7915 45.4689 72.0025 46 72.0025C46.5311 72.0025 47.0405 71.7915 47.416 71.416L71.416 47.416Z" fill="#618CFF"/>
</svg>
