<svg width="110" height="100" viewBox="0 0 110 100" fill="none" xmlns="http://www.w3.org/2000/svg">
<path d="M100.371 68.1079H37.0887L40.2661 61.5652L93.0602 61.4685C94.8455 61.4685 96.3758 60.1793 96.6946 58.3959L104.006 17.0232C104.197 15.9381 103.91 14.8208 103.209 13.9721C102.862 13.5544 102.43 13.2179 101.942 12.9861C101.454 12.7542 100.921 12.6324 100.382 12.6292L33.2205 12.4036L32.6467 9.67477C32.2854 7.93434 30.7338 6.66663 28.9698 6.66663H12.5513C11.5564 6.66663 10.6023 7.06618 9.89877 7.7774C9.19527 8.48861 8.80005 9.45322 8.80005 10.459C8.80005 11.4648 9.19527 12.4295 9.89877 13.1407C10.6023 13.8519 11.5564 14.2514 12.5513 14.2514H25.9305L28.4384 26.3055L34.6126 56.5265L26.6638 69.6442C26.251 70.2075 26.0023 70.8763 25.946 71.5749C25.8896 72.2736 26.0278 72.9743 26.345 73.5977C26.9826 74.8762 28.2684 75.682 29.6924 75.682H36.3661C34.9433 77.5924 34.1748 79.9193 34.1769 82.3106C34.1769 88.3913 39.0653 93.3333 45.0801 93.3333C51.0948 93.3333 55.9832 88.3913 55.9832 82.3106C55.9832 79.9148 55.1968 77.5835 53.7941 75.682H70.9139C69.4912 77.5924 68.7227 79.9193 68.7248 82.3106C68.7248 88.3913 73.6131 93.3333 79.6279 93.3333C85.6427 93.3333 90.531 88.3913 90.531 82.3106C90.531 79.9148 89.7446 77.5835 88.3419 75.682H100.382C102.444 75.682 104.133 73.9845 104.133 71.8895C104.127 70.8848 103.728 69.9233 103.023 69.2148C102.319 68.5064 101.365 68.1084 100.371 68.1079ZM34.7827 19.881L95.972 20.0851L89.9784 54.0126L41.9133 54.0986L34.7827 19.881ZM45.0801 85.7055C43.231 85.7055 41.722 84.18 41.722 82.3106C41.722 80.4413 43.231 78.9157 45.0801 78.9157C46.9291 78.9157 48.4381 80.4413 48.4381 82.3106C48.4381 83.211 48.0843 84.0745 47.4546 84.7112C46.8248 85.3478 45.9707 85.7055 45.0801 85.7055ZM79.6279 85.7055C77.7788 85.7055 76.2698 84.18 76.2698 82.3106C76.2698 80.4413 77.7788 78.9157 79.6279 78.9157C81.477 78.9157 82.986 80.4413 82.986 82.3106C82.986 83.211 82.6322 84.0745 82.0024 84.7112C81.3727 85.3478 80.5185 85.7055 79.6279 85.7055Z" fill="#618CFF"/>
</svg>
