<svg width="60" height="60" viewBox="0 0 60 60" fill="none" xmlns="http://www.w3.org/2000/svg">
<path d="M31.8 27C30.6 26.7 29.4 26.1 28.5 25.2C27.6 24.9 27.3 24 27.3 23.4C27.3 22.8 27.6 21.9 28.2 21.6C29.1 21 30 20.4 30.9 20.7C32.7 20.7 34.2 21.6 35.1 22.8L37.8 19.2C36.9 18.3 36 17.7 35.1 17.1C34.2 16.5 33 16.2 31.8 16.2V12H28.2V16.2C26.7 16.5 25.2 17.4 24 18.6C22.8 20.1 21.9 21.9 22.2 23.7C22.2 25.5 22.8 27.3 24 28.5C25.5 30 27.6 30.9 29.4 31.8C30.3 32.1 31.5 32.7 32.4 33.3C33 33.9 33.3 34.8 33.3 35.7C33.3 36.6 33 37.5 32.4 38.4C31.5 39.3 30.3 39.6 29.4 39.6C28.2 39.6 26.7 39.3 25.8 38.4C24.9 37.8 24 36.9 23.4 36L20.4 39.3C21.3 40.5 22.2 41.4 23.4 42.3C24.9 43.2 26.7 44.1 28.5 44.1V48H31.8V43.5C33.6 43.2 35.1 42.3 36.3 41.1C37.8 39.6 38.7 37.2 38.7 35.1C38.7 33.3 38.1 31.2 36.6 30C35.1 28.5 33.6 27.6 31.8 27V27ZM30 6C16.8 6 6 16.8 6 30C6 43.2 16.8 54 30 54C43.2 54 54 43.2 54 30C54 16.8 43.2 6 30 6ZM30 50.7C18.6 50.7 9.3 41.4 9.3 30C9.3 18.6 18.6 9.3 30 9.3C41.4 9.3 50.7 18.6 50.7 30C50.7 41.4 41.4 50.7 30 50.7V50.7Z" fill="#618CFF"/>
</svg>
