<svg width="60" height="60" viewBox="0 0 60 60" fill="none" xmlns="http://www.w3.org/2000/svg">
<path d="M17.5 45C20.25 45 22.5 47.25 22.5 50C22.5 52.75 20.25 55 17.5 55C14.75 55 12.5 52.75 12.5 50C12.5 47.25 14.75 45 17.5 45ZM42.5 45C45.25 45 47.5 47.25 47.5 50C47.5 52.75 45.25 55 42.5 55C39.75 55 37.5 52.75 37.5 50C37.5 47.25 39.75 45 42.5 45ZM18 37C18 37.25 18.25 37.5 18.5 37.5H47.5V42.5H17.5C14.75 42.5 12.5 40.25 12.5 37.5C12.5 36.5 12.75 35.75 13 35L16.25 29L7.5 10H2.5V5H10.75L21.5 27.5H39L48.75 10L53 12.5L43.25 30C42.5 31.5 40.75 32.5 39 32.5H20.25L18 36.5V37ZM23.5 2.5C25.5 2.5 27 4 27 6C27 8 25.5 9.5 23.5 9.5C21.5 9.5 20 8 20 6C20 4 21.75 2.5 23.5 2.5ZM36.5 22.5C34.5 22.5 33 21 33 19C33 17 34.5 15.5 36.5 15.5C38.5 15.5 40 17 40 19C40 21 38.25 22.5 36.5 22.5ZM23 22.5L20 19.5L37 2.5L40 5.5L23 22.5Z" fill="#618CFF"/>
</svg>
