<svg width="110" height="100" viewBox="0 0 110 100" fill="none" xmlns="http://www.w3.org/2000/svg">
<path d="M8.59375 76.5625H51.5625V90.625H34.375V96.875H75.625V90.625H58.4375V76.5625H101.406C102.773 76.5611 104.084 76.0667 105.051 75.188C106.017 74.3092 106.561 73.1178 106.562 71.875V14.0625C106.561 12.8197 106.017 11.6283 105.051 10.7495C104.084 9.87077 102.773 9.37645 101.406 9.375H8.59375C7.22672 9.37645 5.91613 9.87077 4.94949 10.7495C3.98285 11.6283 3.43909 12.8197 3.4375 14.0625V71.875C3.43909 73.1178 3.98285 74.3092 4.94949 75.188C5.91613 76.0667 7.22672 76.5611 8.59375 76.5625ZM10.3125 15.625H99.6875V70.3125H10.3125V15.625Z" fill="#618CFF"/>
<path d="M55 42.9688C59.7462 42.9688 63.5938 39.471 63.5938 35.1562C63.5938 30.8415 59.7462 27.3438 55 27.3438C50.2538 27.3438 46.4062 30.8415 46.4062 35.1562C46.4062 39.471 50.2538 42.9688 55 42.9688Z" stroke="#618CFF" stroke-width="2"/>
<path d="M63.5939 46.0938H64.1989C65.4554 46.0941 66.6686 46.5115 67.6104 47.2676C68.5523 48.0237 69.158 49.0665 69.3139 50.2L69.9859 55.0813C70.0463 55.521 70.0032 55.9674 69.8594 56.3908C69.7155 56.8142 69.4743 57.205 69.1516 57.5372C68.829 57.8694 68.4323 58.1354 67.9879 58.3175C67.5436 58.4997 67.0616 58.5938 66.5742 58.5938H43.426C42.9386 58.5938 42.4567 58.4997 42.0123 58.3175C41.5679 58.1354 41.1712 57.8694 40.8486 57.5372C40.5259 57.205 40.2847 56.8142 40.1408 56.3908C39.997 55.9674 39.9539 55.521 40.0143 55.0813L40.6846 50.2C40.8405 49.066 41.4468 48.0228 42.3893 47.2666C43.3319 46.5104 44.5459 46.0933 45.8031 46.0938H46.4064" stroke="#618CFF" stroke-width="2" stroke-linecap="round" stroke-linejoin="round"/>
</svg>
